Coordinates
version=1
nRows=30
nColumns=19
inDegrees=yes

Units are S.I. units (second, meters, Newtons, ...)
If the header above contains a line with 'inDegrees', this indicates whether rotational values are in degrees (yes) or radians (no).

endheader
time	pelvis_tilt	pelvis_list	pelvis_rotation	pelvis_tx	pelvis_ty	pelvis_tz	hip_flexion_r	hip_adduction_r	hip_rotation_r	knee_angle_r	knee_angle_r_beta	ankle_angle_r	hip_flexion_l	hip_adduction_l	hip_rotation_l	knee_angle_l	knee_angle_l_beta	ankle_angle_l
     15.35333333	     -0.08687050	    -12.81238264	     -2.53335102	      2.20726355	      1.04797757	      1.02836013	     19.52647722	     16.19313193	    -11.86211540	     15.00899166	      0.26195632	      1.62772601	    -15.97930107	    -21.49758803	    -18.99303544	     71.78761787	      1.25293029	    -15.73020251
     15.36000000	      0.07451913	    -13.28528086	     -2.67377374	      2.20588103	      1.04237143	      1.02829468	     19.85093096	     16.32392404	    -13.03665235	     17.93218687	      0.31297570	      1.97201715	    -14.66211657	    -22.15510128	    -17.88457499	     75.12196641	      1.31112565	    -15.07966336
     15.36666667	     -0.07842942	    -13.72793018	     -2.89937632	      2.20436742	      1.03615589	      1.02831737	     20.51000363	     16.41540254	    -14.03024683	     21.06500175	      0.36765364	      2.70029048	    -12.89799137	    -22.81629123	    -16.74857725	     78.50370149	      1.37014807	    -14.44270294
     15.37333333	     -0.20756121	    -14.16573311	     -3.13608405	      2.20263062	      1.03008718	      1.02835346	     21.03951127	     16.53294067	    -14.68361822	     24.15845503	      0.42164458	      3.64987369	    -11.05413285	    -23.45745933	    -15.56091771	     81.79981639	      1.42767612	    -13.75452321
     15.38000000	     -0.46031848	    -14.57905497	     -3.37908705	      2.20070575	      1.02403634	      1.02846623	     21.60345095	     16.67569319	    -15.07401242	     27.18081484	      0.47439471	      4.93565732	     -8.95133030	    -24.08957602	    -14.29946832	     85.02377425	      1.48394480	    -13.01990618
     15.38666667	     -0.69461656	    -14.98649224	     -3.61862313	      2.19860587	      1.01826410	      1.02866491	     22.00038959	     16.88070498	    -15.19049252	     29.99583991	      0.52352617	      6.52343766	     -6.76030305	    -24.71181388	    -12.97408873	     88.12955784	      1.53815095	    -12.27604704
     15.39333333	     -1.21776606	    -15.27857560	     -3.98941136	      2.19623585	      1.01257818	      1.02911674	     22.59068321	     17.06551354	    -15.02440983	     32.67682968	      0.57031827	      8.28759504	     -4.14476586	    -25.20292450	    -11.61068862	     91.12954546	      1.59051061	    -11.49768281
     15.40000000	     -1.68105206	    -15.53274359	     -4.34050303	      2.19373480	      1.00749342	      1.02966466	     22.92016237	     17.28250184	    -14.67674277	     35.01716696	      0.61116486	     10.20361645	     -1.49425429	    -25.65074581	    -10.21171846	     93.93019118	      1.63939110	    -10.72327776
     15.40666667	     -2.14860940	    -15.71163043	     -4.69235130	      2.19112666	      1.00302393	      1.03033195	     23.06227410	     17.48606325	    -14.18325337	     37.02973176	      0.64629074	     12.17174515	      1.25055489	    -25.99277250	     -8.78049750	     96.50316752	      1.68429801	     -9.90671036
     15.41333333	     -2.60002425	    -15.84811933	     -4.99754913	      2.18848878	      0.99926858	      1.03103105	     22.95638461	     17.68098650	    -13.62050931	     38.61500102	      0.67395891	     14.09923328	      4.07918152	    -26.27277913	     -7.30377717	     98.83076721	      1.72492229	     -9.12153784
     15.42000000	     -3.05183459	    -15.83861518	     -5.30449091	      2.18588902	      0.99627001	      1.03178728	     22.64330622	     17.77057232	    -12.93310669	     39.84672122	      0.69545648	     15.94156460	      6.95346404	    -26.34581181	     -5.86625606	    100.86104839	      1.76035738	     -8.31080984
     15.42666667	     -2.76605953	    -15.84687221	     -5.61771114	      2.18369691	      0.99497461	      1.03264118	     21.18618215	     17.94078047	    -11.93272993	     40.53282755	      0.70743130	     17.71926684	      8.78682379	    -26.43574141	     -4.89920311	    102.38531353	      1.78696083	     -7.47323736
     15.43333333	     -3.66989235	    -15.66463299	     -5.56832212	      2.18137176	      0.99286624	      1.03316527	     21.00102657	     17.77410917	    -11.61144292	     40.97585992	      0.71516367	     19.08837298	     12.52864057	    -26.17976143	     -2.97178878	    103.93734333	      1.81404886	     -6.77619118
     15.44000000	     -3.51788201	    -15.38922421	     -5.80634225	      2.17968868	      0.99306566	      1.03401461	     19.26618971	     17.67336593	    -10.53576419	     40.88911925	      0.71364976	     20.40146898	     14.51262395	    -25.87582642	     -2.13236334	    104.79227448	      1.82897022	     -5.96903189
     15.44666667	     -4.06608884	    -15.11219006	     -5.46324423	      2.17808488	      0.99274367	      1.03437490	     18.29286822	     17.37807874	    -10.31509317	     40.55225787	      0.70777042	     21.36680775	     17.79769211	    -25.36020917	     -0.37439399	    105.59736847	      1.84302176	     -5.34388640
     15.45333333	     -4.08421523	    -14.57752546	     -5.54984119	      2.17720274	      0.99428165	      1.03509408	     16.38303132	     17.01851958	     -9.25371395	     39.75253088	      0.69381255	     21.98146777	     19.87623749	    -24.68656582	      0.26540472	    105.76463372	      1.84594109	     -4.61271600
     15.46000000	     -4.01899412	    -14.14067559	     -4.75208255	      2.17683377	      0.99625411	      1.03485285	     14.31803416	     16.48124659	     -9.24821006	     38.53920782	      0.67263607	     22.37059185	     22.26944699	    -23.73081176	      1.75955389	    105.71475258	      1.84507050	     -4.08290747
     15.46666667	     -4.11964838	    -13.53055959	     -4.18867822	      2.17697820	      0.99876304	      1.03489965	     12.26518906	     15.89506819	     -8.95586888	     37.08996104	      0.64734194	     22.37362632	     24.50873748	    -22.67250729	      2.71062107	    105.28402432	      1.83755287	     -3.55163788
     15.47333333	     -4.19144482	    -12.79766798	     -3.49118661	      2.17757514	      1.00187167	      1.03474307	     10.08600870	     15.19147881	     -8.76882962	     35.41027957	      0.61802597	     22.01573862	     26.57068931	    -21.38706605	      3.51137583	    104.51793950	      1.82418217	     -3.11150042
     15.48000000	     -4.63525645	    -11.89469833	     -3.14688127	      2.17852445	      1.00513730	      1.03494949	      8.23732971	     14.43132153	     -8.19520344	     33.67188793	      0.58768531	     21.27898317	     28.68745137	    -20.07988620	      3.73556451	    103.43922354	      1.80535503	     -2.61870761
     15.48666667	     -4.22421795	    -10.98856978	     -1.81905195	      2.18014921	      1.00977124	      1.03389299	      5.36567054	     13.48202298	     -8.76982858	     31.46633912	      0.54919122	     20.09722801	     29.97982881	    -18.27054435	      4.51104811	    102.00754099	      1.78036745	     -2.34686559
     15.49333333	     -4.37437601	     -9.87748200	     -0.97352170	      2.18198446	      1.01418527	      1.03330818	      3.12056537	     12.44833585	     -8.93043138	     29.40224707	      0.51316602	     18.54121871	     31.49226332	    -16.47986413	      4.62981667	    100.31218229	      1.75077786	     -2.11048686
     15.50000000	     -4.47706800	     -8.68341483	     -0.11024078	      2.18408612	      1.01903327	      1.03258030	      0.80638767	     11.35612284	     -9.20620397	     27.26428392	      0.47585152	     16.55547682	     32.73553162	    -14.58902584	      4.55027409	     98.33730717	      1.71630979	     -1.85861920
     15.50666667	     -4.27312817	     -7.36700099	      0.53409903	      2.18663091	      1.02460654	      1.03210921	     -1.88580959	     10.17239575	     -9.34620110	     25.04011054	      0.43703237	     14.12359609	     33.28344880	    -12.82440117	      3.93717070	     96.02313278	      1.67591983	     -1.53717249
     15.51333333	     -4.52297194	     -6.03812228	      1.22092021	      2.18912901	      1.02973713	      1.03141413	     -3.94047511	      8.95657241	     -9.82808068	     23.03057216	      0.40195931	     11.35774559	     34.25622039	    -10.95201208	      3.35953217	     93.55577540	      1.63285631	     -1.34829088
     15.52000000	     -4.84461227	     -4.70545206	      1.77318799	      2.19173258	      1.03493184	      1.03081906	     -5.82715564	      7.72812409	    -10.37148823	     21.14598868	      0.36906713	      8.29355996	     35.11322196	     -9.18612221	      2.55213583	     90.86864171	      1.58595698	     -1.16848626
     15.52666667	     -5.22306903	     -3.41276218	      2.23586017	      2.19444072	      1.04009490	      1.03028241	     -7.53876271	      6.52432743	    -11.03954979	     19.41897656	      0.33892508	      4.94069803	     35.87197843	     -7.55838933	      1.58185137	     87.98647924	      1.53565376	     -1.00204027
     15.53333333	     -5.64765988	     -2.17210997	      2.58574645	      2.19716719	      1.04518815	      1.02984644	     -9.04813995	      5.33863136	    -11.83202289	     17.91270973	      0.31263576	      1.39929205	     36.53296856	     -6.09687651	      0.44163998	     84.91962552	      1.48212706	     -0.83931254
     15.54000000	     -6.85546835	     -1.41721335	      2.66774584	      2.19961520	      1.04903402	      1.02965169	     -9.35338468	      4.50685107	    -12.67831670	     16.98624229	      0.29646586	     -2.30459189	     38.05566872	     -5.30434180	     -0.77725045	     81.88400972	      1.42914557	     -0.63106578
     15.54666667	     -6.44763776	      0.04895983	      2.87691816	      2.20270941	      1.05511050	      1.02951050	    -11.62475066	      3.10776356	    -13.68272283	     15.59893181	      0.27225272	     -5.98249221	     37.38267547	     -3.88170424	     -2.40650425	     78.28581495	      1.36634523	     -0.49552269
